<svg id="Calque_2" data-name="Calque 2" xmlns="http://www.w3.org/2000/svg" viewBox="0 0 48 48"><defs><style>.cls-1{fill:#1c1c1b;}</style></defs><title>heart</title><path class="cls-1" d="M24,43.68a1,1,0,0,1-.62-.22A90.79,90.79,0,0,1,7.31,27.35a17.63,17.63,0,0,1-3.88-8C2.81,15.8,3,8.94,7.75,5.92,12,3.23,19.18,4.08,24,9.93,29,4.1,36.19,3.29,40.4,6c4.61,3,4.87,9.79,4.29,13.33a17.74,17.74,0,0,1-3.72,8A80,80,0,0,1,24.62,43.48,1,1,0,0,1,24,43.68Zm-11-37.21A7.87,7.87,0,0,0,8.82,7.61C5,10.07,4.9,16.16,5.4,19a15.9,15.9,0,0,0,3.5,7.11A88.35,88.35,0,0,0,24,41.41a77.39,77.39,0,0,0,15.33-15.3A15.84,15.84,0,0,0,42.71,19c.5-3.07.35-8.9-3.4-11.33s-10.4-1.18-14.48,4.45a1,1,0,0,1-.81.41h0a1,1,0,0,1-.81-.42A12.79,12.79,0,0,0,13.05,6.47Z"/></svg>