<svg id="Layer_1" data-name="Layer 1" xmlns="http://www.w3.org/2000/svg" viewBox="0 0 100 200"><defs><style>.cls-1{fill:#ffdb38;stroke:#000;stroke-miterlimit:10;stroke-width:3px;}</style></defs><path d="M97.26,2.74V197.26H2.74V2.74H97.26M100,0H0V200H100V0Z"/><line class="cls-1" x1="19.11" y1="19.58" x2="19.11" y2="34.72"/><line class="cls-1" x1="34.56" y1="19.58" x2="34.56" y2="34.72"/><line class="cls-1" x1="50" y1="19.58" x2="50" y2="34.72"/><line class="cls-1" x1="65.44" y1="19.58" x2="65.44" y2="34.72"/><line class="cls-1" x1="80.89" y1="19.58" x2="80.89" y2="34.72"/><line class="cls-1" x1="19.11" y1="45.32" x2="19.11" y2="60.46"/><line class="cls-1" x1="34.56" y1="45.32" x2="34.56" y2="60.46"/><line class="cls-1" x1="50" y1="45.32" x2="50" y2="60.46"/><line class="cls-1" x1="65.44" y1="45.32" x2="65.44" y2="60.46"/><line class="cls-1" x1="80.89" y1="45.32" x2="80.89" y2="60.46"/><line class="cls-1" x1="19.11" y1="71.06" x2="19.11" y2="86.2"/><line class="cls-1" x1="34.56" y1="71.06" x2="34.56" y2="86.2"/><line class="cls-1" x1="50" y1="71.06" x2="50" y2="86.2"/><line class="cls-1" x1="65.44" y1="71.06" x2="65.44" y2="86.2"/><line class="cls-1" x1="80.89" y1="71.06" x2="80.89" y2="86.2"/><line class="cls-1" x1="19.11" y1="96.8" x2="19.11" y2="111.94"/><line class="cls-1" x1="34.56" y1="96.8" x2="34.56" y2="111.94"/><line class="cls-1" x1="50" y1="96.8" x2="50" y2="111.94"/><line class="cls-1" x1="65.44" y1="96.8" x2="65.44" y2="111.94"/><line class="cls-1" x1="80.89" y1="96.8" x2="80.89" y2="111.94"/><line class="cls-1" x1="19.11" y1="122.54" x2="19.11" y2="137.68"/><line class="cls-1" x1="34.56" y1="122.54" x2="34.56" y2="137.68"/><line class="cls-1" x1="50" y1="122.54" x2="50" y2="137.68"/><line class="cls-1" x1="65.44" y1="122.54" x2="65.44" y2="137.68"/><line class="cls-1" x1="80.89" y1="122.54" x2="80.89" y2="137.68"/><line class="cls-1" x1="19.11" y1="148.28" x2="19.11" y2="163.42"/><line class="cls-1" x1="34.56" y1="148.28" x2="34.56" y2="163.42"/><line class="cls-1" x1="50" y1="148.28" x2="50" y2="163.42"/><line class="cls-1" x1="50" y1="184.86" x2="50" y2="200"/><line class="cls-1" x1="65.44" y1="148.28" x2="65.44" y2="163.42"/><line class="cls-1" x1="80.89" y1="148.28" x2="80.89" y2="163.42"/></svg>